<?xml version="1.0" standalone="no"?>
<!DOCTYPE svg PUBLIC "-//W3C//DTD SVG 1.1//EN" "http://www.w3.org/Graphics/SVG/1.1/DTD/svg11.dtd">
<svg xmlns="http://www.w3.org/2000/svg" xmlns:xlink="http://www.w3.org/1999/xlink" version="1.1" id="body_1" width="1123" height="793">

<defs>
    <clipPath  id="p1-1">

    <path id=""  clip-rule="evenodd" transform="matrix(1 0 0 1 0 0)"  d="M0 595L0 0L0 0L842 0L842 0L842 595L842 595L0 595z" />    </clipPath>
    <clipPath  id="p1-2">

    <path id=""  clip-rule="evenodd" transform="matrix(1 0 0 1 0 0)"  d="M90 0L842 0L842 0L842 595L842 595L90 595z" />    </clipPath>
    <clipPath  id="p1-3">

    <path id=""  clip-rule="evenodd" transform="matrix(1 0 0 1 0 0)"  d="M96 78L179.25 78L179.25 78L179.25 105L179.25 105L96 105z" />    </clipPath>
    <clipPath  id="p1-4">

    <path id=""  clip-rule="evenodd" transform="matrix(1 0 0 1 0 0)"  d="M96 78L179.25 78L179.25 78L179.25 105L179.25 105L96 105z" />    </clipPath>
</defs>

<g transform="matrix(1.3333 0 0 1.3333 0 0)">
	<g clip-path="url(#p1-1)" >
		<g clip-path="url(#p1-2)" >
			<g clip-path="url(#p1-3)" >
				<g clip-path="url(#p1-4)" >
    <path id=""  transform="matrix(1 0 0 -1 0 595)"  d="M136.879 491.711C 137.068 491.616 137.269 491.533 137.482 491.462C 137.695 491.415 137.99 491.391 138.369 491.391C 139.267 491.391 140.012 491.675 140.603 492.243C 141.218 492.83398 141.525 493.65 141.525 494.69C 141.525 495.447 141.36 496.215 141.02899 496.995C 140.72101 497.776 140.248 498.639 139.61 499.585C 139.04199 500.412 138.522 501.228 138.049 502.032C 137.6 502.836 137.375 503.758 137.375 504.799C 137.375 505.815 137.624 506.702 138.12 507.45898C 138.617 508.239 139.326 508.854 140.248 509.303C 141.171 509.753 142.246 509.977 143.476 509.977C 144.28 509.977 145.07199 509.883 145.853 509.693C 146.633 509.504 147.271 509.161 147.768 508.665C 148.264 508.168 148.513 507.447 148.513 506.501C 148.513 506.17 148.442 505.815 148.3 505.437C 148.158 505.082 147.945 504.775 147.661 504.515C 147.37799 504.255 146.999 504.125 146.526 504.125C 146.03 504.125 145.616 504.314 145.285 504.692C 144.954 505.094 144.788 505.603 144.788 506.217C 144.788 506.761 144.883 507.27 145.07199 507.743C 145.285 508.215 145.533 508.629 145.817 508.984C 145.486 509.173 145.013 509.268 144.398 509.268C 143.547 509.268 142.861 508.996 142.341 508.452C 141.821 507.908 141.561 507.14 141.561 506.146C 141.561 505.626 141.644 505.13 141.80899 504.657C 141.998 504.208 142.246 503.735 142.554 503.238C 142.885 502.765 143.251 502.20898 143.653 501.571C 144.31601 500.507 144.836 499.549 145.214 498.698C 145.592 497.87 145.782 497.019 145.782 496.144C 145.782 495.104 145.498 494.17 144.93 493.342C 144.386 492.515 143.63 491.864 142.66 491.391C 141.69101 490.918 140.556 490.682 139.255 490.682C 138.33301 490.682 137.446 490.812 136.595 491.072C 135.767 491.309 135.082 491.711 134.538 492.278C 134.018 492.846 133.758 493.626 133.758 494.619C 133.758 495.163 133.911 495.659 134.219 496.109C 134.502 496.582 134.952 496.818 135.56601 496.818C 136.181 496.818 136.642 496.57 136.95 496.073C 137.257 495.577 137.411 494.962 137.411 494.229C 137.411 493.70898 137.34 493.224 137.198 492.775C 137.08 492.349 136.97299 491.994 136.879 491.711z" stroke="none" fill="#231915" fill-rule="nonzero" />
    <path id=""  transform="matrix(1 0 0 -1 0 595)"  d="M141.135 514.553C 141.135 513.158 140.662 511.822 139.716 510.545C 138.794 509.291 137.517 508.275 135.886 507.494L135.886 507.494L135.70801 508.062C 136.772 508.629 137.659 509.327 138.369 510.154C 139.078 510.982 139.468 511.857 139.539 512.779C 139.232 512.495 138.901 512.259 138.546 512.07C 138.19101 511.904 137.813 511.822 137.411 511.822C 136.82 511.822 136.347 511.963 135.992 512.247C 135.661 512.555 135.496 512.968 135.496 513.489C 135.496 514.103 135.661 514.671 135.992 515.191C 136.323 515.711 136.761 516.137 137.304 516.468C 137.84799 516.823 138.42801 517 139.04199 517C 139.728 517 140.248 516.775 140.603 516.326C 140.95801 515.9 141.135 515.309 141.135 514.553z" stroke="none" fill="#231915" fill-rule="nonzero" />
    <path id=""  transform="matrix(1 0 0 -1 0 595)"  d="M130.437 509.481C 131.288 509.504 132.08 509.552 132.813 509.622C 133.57 509.693 134.291 509.812 134.977 509.977L134.977 509.977L130.401 494.229C 130.307 493.945 130.236 493.65 130.189 493.342C 130.16501 493.058 130.189 492.81 130.259 492.597C 130.354 492.408 130.555 492.314 130.862 492.314C 131.241 492.314 131.631 492.515 132.033 492.917C 132.435 493.319 132.849 494.134 133.274 495.364L133.274 495.364L133.806 496.96L133.806 496.96L134.48 496.96L134.48 496.96L133.594 494.371C 133.262 493.401 132.849 492.645 132.352 492.101C 131.856 491.581 131.323 491.214 130.756 491.001C 130.212 490.788 129.668 490.682 129.124 490.682C 127.989 490.682 127.185 491.037 126.713 491.746C 126.405 492.266 126.287 492.905 126.358 493.661C 126.429 494.418 126.583 495.234 126.819 496.109L126.819 496.109L130.437 509.481zM122.456 492.314C 122.882 492.314 123.367004 492.562 123.910995 493.058C 124.454 493.579 125.01 494.3 125.578 495.222C 126.145004 496.144 126.688995 497.244 127.209 498.521C 127.729004 499.798 128.179 501.193 128.557 502.706L128.557 502.706L127.812 498.875C 127.126 496.865 126.393 495.258 125.613 494.052C 124.856 492.846 124.052 491.983 123.201004 491.462C 122.374 490.942 121.51 490.682 120.612 490.682C 119.335 490.682 118.389 491.072 117.774 491.853C 117.16 492.656 116.852 493.721 116.852 495.045C 116.852 496.274 117.053 497.563 117.455 498.911C 117.857 500.282 118.413 501.618 119.122 502.919C 119.854996 504.243 120.683 505.425 121.604996 506.466C 122.527 507.53 123.509 508.381 124.548996 509.019C 125.589005 509.658 126.63 509.977 127.67 509.977C 128.474 509.977 129.089 509.634 129.515 508.949C 129.94 508.286 130.047 507.27 129.834 505.898L129.834 505.898L129.444 505.685C 129.60901 506.678 129.562 507.45898 129.302 508.026C 129.065 508.594 128.663 508.878 128.09601 508.878C 127.552 508.878 126.973 508.594 126.358 508.026C 125.767 507.45898 125.176 506.69 124.584 505.721C 123.993 504.751 123.449 503.652 122.953 502.422C 122.479996 501.193 122.102 499.91602 121.818 498.592C 121.534 497.267 121.392 495.979 121.392 494.725C 121.392 493.851 121.475 493.224 121.64 492.846C 121.83 492.491 122.102 492.314 122.456 492.314z" stroke="none" fill="#231915" fill-rule="nonzero" />
    <path id=""  transform="matrix(1 0 0 -1 0 595)"  d="M108.074 491.711C 108.264 491.616 108.465 491.533 108.677 491.462C 108.89 491.415 109.186 491.391 109.564 491.391C 110.463 491.391 111.208 491.675 111.798996 492.243C 112.413 492.83398 112.721 493.65 112.721 494.69C 112.721 495.447 112.555 496.215 112.224 496.995C 111.917 497.776 111.444 498.639 110.806 499.585C 110.238 500.412 109.718 501.228 109.245 502.032C 108.796 502.836 108.571 503.758 108.571 504.799C 108.571 505.815 108.819 506.702 109.316 507.45898C 109.812 508.239 110.522 508.854 111.444 509.303C 112.366 509.753 113.442 509.977 114.672 509.977C 115.476 509.977 116.268 509.883 117.048004 509.693C 117.828 509.504 118.466995 509.161 118.963 508.665C 119.46 508.168 119.708 507.447 119.708 506.501C 119.708 506.17 119.637 505.815 119.495 505.437C 119.354004 505.082 119.141 504.775 118.857 504.515C 118.573 504.255 118.195 504.125 117.722 504.125C 117.225 504.125 116.812 504.314 116.481 504.692C 116.149 505.094 115.984 505.603 115.984 506.217C 115.984 506.761 116.079 507.27 116.268 507.743C 116.481 508.215 116.729004 508.629 117.013 508.984C 116.682 509.173 116.209 509.268 115.594 509.268C 114.743 509.268 114.057 508.996 113.537 508.452C 113.016 507.908 112.756 507.14 112.756 506.146C 112.756 505.626 112.839005 505.13 113.005 504.657C 113.194 504.208 113.442 503.735 113.749 503.238C 114.08 502.765 114.447 502.20898 114.849 501.571C 115.511 500.507 116.031 499.549 116.41 498.698C 116.788 497.87 116.977 497.019 116.977 496.144C 116.977 495.104 116.693 494.17 116.126 493.342C 115.582 492.515 114.825 491.864 113.856 491.391C 112.886 490.918 111.751 490.682 110.451004 490.682C 109.529 490.682 108.642 490.812 107.791 491.072C 106.963 491.309 106.277 491.711 105.733 492.278C 105.213 492.846 104.953 493.626 104.953 494.619C 104.953 495.163 105.107 495.659 105.414 496.109C 105.698 496.582 106.147 496.818 106.762 496.818C 107.377 496.818 107.838 496.57 108.145004 496.073C 108.453 495.577 108.606 494.962 108.606 494.229C 108.606 493.70898 108.536 493.224 108.394 492.775C 108.275 492.349 108.169 491.994 108.074 491.711z" stroke="none" fill="#231915" fill-rule="nonzero" />
    <path id=""  transform="matrix(1 0 0 -1 0 595)"  d="M104.619 494.938C 104.406 494.087 104.312 493.449 104.335 493.023C 104.359 492.597 104.56 492.314 104.938 492.172C 105.316 492.03 105.908 491.935 106.712 491.888L106.712 491.888L106.57 491.17902C 105.955 491.226 105.163 491.25 104.193 491.25C 103.224 491.273 102.231 491.285 101.214 491.285C 100.15 491.285 99.157 491.273 98.235 491.25C 97.336 491.25 96.591 491.226 96 491.17902L96 491.17902L96.177 491.888C 96.958 491.935 97.561 492.03 97.986 492.172C 98.436 492.314 98.79 492.597 99.05 493.023C 99.31 493.449 99.547 494.087 99.76 494.938L99.76 494.938L104.442 512.531C 104.678 513.406 104.773 514.044 104.725 514.446C 104.678 514.872 104.465 515.156 104.087 515.297C 103.732 515.463 103.153 515.558 102.349 515.581L102.349 515.581L102.526 516.291C 103.094 516.267 103.839 516.243 104.761 516.22C 105.683 516.196 106.676 516.184 107.74 516.184C 108.757 516.184 109.738 516.196 110.684 516.22C 111.63 516.243 112.446 516.267 113.131 516.291L113.131 516.291L112.954 515.581C 112.15 515.558 111.524 515.463 111.074 515.297C 110.625 515.156 110.270004 514.872 110.01 514.446C 109.774 514.044 109.537 513.406 109.301 512.531L109.301 512.531L104.619 494.938z" stroke="none" fill="#231915" fill-rule="nonzero" />
    <path id=""  transform="matrix(1 0 0 -1 0 595)"  d="M176.656 503.633C 177.01001 503.633 177.28299 503.594 177.476 503.516C 177.66699 503.444 177.83301 503.366 177.97 503.282C 178.04199 503.24 178.1 503.207 178.142 503.183C 178.189 503.165 178.235 503.156 178.27701 503.156C 178.336 503.156 178.37799 503.189 178.403 503.255C 178.433 503.321 178.457 503.42 178.475 503.552L178.475 503.552L178.681 503.552C 178.676 503.438 178.66699 503.3 178.655 503.138C 178.64801 502.982 178.643 502.775 178.636 502.517C 178.636 502.259 178.636 501.92 178.636 501.5L178.636 501.5L178.429 501.5C 178.406 501.812 178.33301 502.115 178.213 502.409C 178.094 502.703 177.923 502.943 177.7 503.129C 177.485 503.321 177.218 503.417 176.899 503.417C 176.612 503.417 176.375 503.336 176.188 503.174C 176.002 503.012 175.909 502.787 175.909 502.499C 175.909 502.259 175.969 502.052 176.09 501.878C 176.209 501.71 176.384 501.545 176.612 501.383C 176.845 501.221 177.127 501.026 177.45801 500.798C 177.746 500.612 178.00299 500.426 178.231 500.24C 178.459 500.05402 178.643 499.844 178.781 499.61C 178.918 499.376 178.988 499.097 178.988 498.773C 178.988 498.377 178.883 498.05 178.673 497.792C 178.469 497.534 178.198 497.339 177.863 497.207C 177.52701 497.081 177.157 497.018 176.756 497.018C 176.384 497.018 176.086 497.05402 175.86499 497.126C 175.643 497.198 175.457 497.273 175.306 497.351C 175.175 497.435 175.073 497.477 175 497.477C 174.94 497.477 174.896 497.444 174.86499 497.378C 174.84201 497.312 174.821 497.213 174.802 497.081L174.802 497.081L174.595 497.081C 174.607 497.225 174.614 497.393 174.614 497.585C 174.619 497.777 174.623 498.026 174.623 498.332C 174.62799 498.644 174.632 499.037 174.632 499.511L174.632 499.511L174.838 499.511C 174.863 499.115 174.92801 498.743 175.037 498.395C 175.15 498.053 175.32199 497.777 175.55 497.567C 175.78299 497.357 176.093 497.252 176.47699 497.252C 176.687 497.252 176.873 497.288 177.034 497.36C 177.202 497.438 177.337 497.552 177.439 497.702C 177.54199 497.852 177.593 498.038 177.593 498.26C 177.593 498.512 177.532 498.731 177.413 498.917C 177.29901 499.103 177.139 499.277 176.936 499.439C 176.738 499.601 176.507 499.766 176.242 499.934C 175.95999 500.12 175.69699 500.306 175.45 500.492C 175.205 500.678 175.007 500.891 174.856 501.131C 174.712 501.371 174.64 501.656 174.64 501.986C 174.64 502.364 174.733 502.673 174.919 502.913C 175.112 503.159 175.361 503.339 175.66699 503.453C 175.979 503.573 176.30899 503.633 176.656 503.633z" stroke="none" fill="#231915" fill-rule="nonzero" />
    <path id=""  transform="matrix(1 0 0 -1 0 595)"  d="M172.644 501.626C 172.62 501.284 172.608 501.023 172.608 500.843C 172.614 500.663 172.617 500.498 172.617 500.348C 172.617 500.198 172.62 500.033 172.626 499.853C 172.632 499.673 172.647 499.412 172.67099 499.07L172.67099 499.07L172.46399 499.07C 172.43399 499.28 172.377 499.475 172.293 499.655C 172.215 499.835 172.101 499.979 171.95099 500.087C 171.801 500.201 171.606 500.258 171.366 500.258L171.366 500.258L171.366 500.438C 171.54599 500.438 171.699 500.474 171.825 500.546C 171.95099 500.624 172.05301 500.723 172.131 500.843C 172.215 500.969 172.281 501.101 172.32901 501.239C 172.377 501.377 172.413 501.506 172.437 501.626L172.437 501.626L172.644 501.626zM172.383 500.438C 172.383 500.438 172.383 500.408 172.383 500.348C 172.383 500.288 172.383 500.258 172.383 500.258L172.383 500.258L170.808 500.258C 170.808 500.258 170.808 500.288 170.808 500.348C 170.808 500.408 170.808 500.438 170.808 500.438L170.808 500.438L172.383 500.438zM173.787 503.516C 173.763 503.252 173.745 502.997 173.733 502.751C 173.72699 502.505 173.724 502.316 173.724 502.184C 173.724 502.064 173.72699 501.95 173.733 501.842C 173.739 501.734 173.745 501.644 173.751 501.572L173.751 501.572L173.544 501.572C 173.48401 502.01 173.39099 502.355 173.265 502.607C 173.139 502.865 172.974 503.045 172.76999 503.147C 172.57199 503.255 172.338 503.309 172.068 503.309L172.068 503.309L171.699 503.309C 171.525 503.309 171.393 503.294 171.30301 503.264C 171.213 503.234 171.153 503.174 171.123 503.08398C 171.093 502.994 171.078 502.856 171.078 502.67L171.078 502.67L171.078 497.99C 171.078 497.80402 171.093 497.66602 171.123 497.576C 171.153 497.486 171.213 497.426 171.30301 497.396C 171.393 497.366 171.525 497.351 171.699 497.351L171.699 497.351L172.14 497.351C 172.41 497.351 172.647 497.408 172.851 497.522C 173.061 497.642 173.238 497.843 173.382 498.125C 173.532 498.407 173.646 498.788 173.724 499.268L173.724 499.268L173.931 499.268C 173.913 499.076 173.90399 498.824 173.90399 498.512C 173.90399 498.374 173.907 498.17902 173.913 497.927C 173.919 497.675 173.937 497.414 173.96701 497.144C 173.66101 497.156 173.31601 497.162 172.932 497.162C 172.548 497.168 172.206 497.171 171.906 497.171C 171.756 497.171 171.564 497.171 171.33 497.171C 171.09601 497.171 170.844 497.168 170.574 497.162C 170.304 497.162 170.031 497.159 169.755 497.153C 169.479 497.153 169.218 497.15 168.972 497.144L168.972 497.144L168.972 497.324C 169.164 497.336 169.308 497.36 169.40399 497.396C 169.5 497.432 169.563 497.504 169.593 497.612C 169.629 497.72 169.647 497.882 169.647 498.098L169.647 498.098L169.647 502.562C 169.647 502.784 169.629 502.946 169.593 503.048C 169.563 503.156 169.49701 503.228 169.39499 503.264C 169.29901 503.306 169.15799 503.33 168.972 503.336L168.972 503.336L168.972 503.516C 169.218 503.51 169.479 503.504 169.755 503.498C 170.031 503.498 170.304 503.495 170.574 503.489C 170.844 503.489 171.09601 503.489 171.33 503.489C 171.564 503.489 171.756 503.489 171.906 503.489C 172.182 503.489 172.494 503.489 172.84201 503.489C 173.196 503.495 173.511 503.504 173.787 503.516z" stroke="none" fill="#231915" fill-rule="nonzero" />
    <path id=""  transform="matrix(1 0 0 -1 0 595)"  d="M164.608 503.516L164.608 503.336C 164.416 503.33 164.269 503.306 164.16699 503.264C 164.071 503.228 164.008 503.156 163.978 503.048C 163.948 502.946 163.933 502.784 163.933 502.562L163.933 502.562L163.933 498.098C 163.933 497.882 163.948 497.72 163.978 497.612C 164.014 497.504 164.08 497.432 164.176 497.396C 164.272 497.36 164.416 497.336 164.608 497.324L164.608 497.324L164.608 497.144C 164.446 497.156 164.242 497.162 163.996 497.162C 163.75 497.168 163.501 497.171 163.249 497.171C 162.961 497.171 162.688 497.168 162.43 497.162C 162.17801 497.162 161.97699 497.156 161.827 497.144L161.827 497.144L161.827 497.324C 162.019 497.336 162.163 497.36 162.259 497.396C 162.35501 497.432 162.418 497.504 162.448 497.612C 162.48401 497.72 162.502 497.882 162.502 498.098L162.502 498.098L162.502 502.562C 162.502 502.784 162.48401 502.946 162.448 503.048C 162.418 503.156 162.35199 503.228 162.25 503.264C 162.15399 503.306 162.013 503.33 161.827 503.336L161.827 503.336L161.827 503.516C 161.97699 503.51 162.17801 503.504 162.43 503.498C 162.688 503.492 162.961 503.489 163.249 503.489C 163.501 503.489 163.75 503.492 163.996 503.498C 164.242 503.504 164.446 503.51 164.608 503.516zM167.722 503.516L167.722 503.345C 167.53 503.303 167.323 503.219 167.101 503.093C 166.88501 502.967 166.657 502.763 166.41699 502.481L166.41699 502.481L164.725 500.465L164.725 500.465L165.24701 501.212L165.24701 501.212L167.389 497.873C 167.47299 497.735 167.563 497.624 167.659 497.54C 167.755 497.456 167.881 497.384 168.037 497.324L168.037 497.324L168.037 497.144C 167.827 497.156 167.593 497.162 167.33499 497.162C 167.077 497.168 166.843 497.171 166.633 497.171C 166.507 497.171 166.354 497.168 166.17401 497.162C 165.994 497.162 165.76599 497.156 165.48999 497.144L165.48999 497.144L165.48999 497.324C 165.736 497.336 165.883 497.369 165.931 497.423C 165.985 497.483 165.96399 497.585 165.868 497.729L165.868 497.729L164.563 499.844C 164.479 499.982 164.40399 500.08398 164.338 500.15C 164.272 500.222 164.206 500.27 164.14 500.294C 164.074 500.324 163.987 500.342 163.879 500.348L163.879 500.348L163.879 500.537C 164.143 500.543 164.377 500.615 164.581 500.753C 164.791 500.891 165.019 501.101 165.265 501.383L165.265 501.383L165.79599 502.022C 166.024 502.292 166.156 502.523 166.192 502.715C 166.23401 502.913 166.195 503.066 166.075 503.174C 165.961 503.282 165.784 503.339 165.544 503.345L165.544 503.345L165.544 503.516C 165.694 503.51 165.83499 503.504 165.96701 503.498C 166.10501 503.498 166.246 503.495 166.39 503.489C 166.54001 503.489 166.702 503.489 166.876 503.489C 167.05 503.489 167.206 503.492 167.344 503.498C 167.488 503.504 167.614 503.51 167.722 503.516z" stroke="none" fill="#231915" fill-rule="nonzero" />
    <path id=""  transform="matrix(1 0 0 -1 0 595)"  d="M157.018 499.736L159.646 499.736L159.646 499.736L159.574 499.556L159.574 499.556L156.856 499.556L156.856 499.556L157.018 499.736zM156.181 498.431C 155.995 498.173 155.899 497.963 155.893 497.801C 155.887 497.645 155.953 497.528 156.091 497.45C 156.229 497.378 156.41501 497.336 156.649 497.324L156.649 497.324L156.604 497.144C 156.352 497.156 156.133 497.162 155.94699 497.162C 155.767 497.168 155.59601 497.171 155.43399 497.171C 155.296 497.171 155.182 497.168 155.092 497.162C 155.002 497.162 154.909 497.156 154.813 497.144L154.813 497.144L154.849 497.324C 154.957 497.354 155.05899 497.402 155.155 497.468C 155.245 497.534 155.35 497.633 155.47 497.765C 155.584 497.897 155.716 498.068 155.866 498.278L155.866 498.278L159.619 503.561C 159.69699 503.555 159.775 503.552 159.853 503.552C 159.937 503.552 160.012 503.555 160.078 503.561L160.078 503.561L160.438 497.9C 160.456 497.684 160.51001 497.534 160.6 497.45C 160.696 497.372 160.789 497.33 160.879 497.324L160.879 497.324L160.843 497.144C 160.693 497.156 160.492 497.162 160.23999 497.162C 159.994 497.168 159.76 497.171 159.538 497.171C 159.268 497.171 159.013 497.168 158.773 497.162C 158.533 497.162 158.338 497.156 158.188 497.144L158.188 497.144L158.224 497.324C 158.512 497.336 158.716 497.387 158.836 497.477C 158.962 497.573 159.01599 497.774 158.998 498.08L158.998 498.08L158.782 502.22L158.782 502.22L159.088 502.544L159.088 502.544L156.181 498.431z" stroke="none" fill="#231915" fill-rule="nonzero" />
    <path id=""  transform="matrix(1 0 0 -1 0 595)"  d="M151.699 503.642C 152.095 503.642 152.419 503.582 152.671 503.462C 152.929 503.348 153.157 503.213 153.355 503.057C 153.475 502.967 153.565 502.955 153.625 503.021C 153.69101 503.093 153.736 503.258 153.76 503.516L153.76 503.516L153.967 503.516C 153.955 503.282 153.946 502.997 153.94 502.661C 153.93399 502.331 153.931 501.89 153.931 501.338L153.931 501.338L153.724 501.338C 153.694 501.614 153.655 501.848 153.607 502.04C 153.55899 502.238 153.493 502.412 153.409 502.562C 153.325 502.712 153.205 502.847 153.049 502.967C 152.899 503.117 152.725 503.228 152.52701 503.3C 152.329 503.372 152.12201 503.408 151.906 503.408C 151.582 503.408 151.306 503.321 151.078 503.147C 150.85 502.979 150.664 502.748 150.52 502.454C 150.382 502.16 150.28 501.827 150.214 501.455C 150.148 501.089 150.115 500.708 150.115 500.312C 150.115 499.91 150.148 499.523 150.214 499.151C 150.286 498.785 150.394 498.458 150.538 498.17C 150.688 497.882 150.88 497.654 151.114 497.486C 151.34799 497.318 151.624 497.234 151.942 497.234C 152.14 497.234 152.338 497.27 152.536 497.342C 152.74 497.42 152.914 497.531 153.058 497.675C 153.29199 497.855 153.451 498.077 153.535 498.341C 153.619 498.611 153.682 498.968 153.724 499.412L153.724 499.412L153.931 499.412C 153.931 498.842 153.93399 498.38 153.94 498.026C 153.946 497.678 153.955 497.384 153.967 497.144L153.967 497.144L153.76 497.144C 153.736 497.402 153.694 497.564 153.634 497.63C 153.58 497.69598 153.487 497.687 153.355 497.603C 153.133 497.447 152.896 497.309 152.644 497.189C 152.398 497.075 152.08 497.018 151.69 497.018C 151.054 497.018 150.496 497.147 150.01599 497.405C 149.54199 497.663 149.173 498.035 148.909 498.521C 148.645 499.007 148.513 499.592 148.513 500.276C 148.513 500.948 148.648 501.536 148.918 502.04C 149.194 502.544 149.569 502.937 150.043 503.219C 150.523 503.501 151.075 503.642 151.699 503.642z" stroke="none" fill="#231915" fill-rule="nonzero" />
				</g>
			</g>
		</g>
	</g>
</g>
</svg>